<?xml version="1.0" encoding="utf-8"?>
<!-- Generated by Mocodo 4.0.12 -->
<svg width="478" height="514" viewBox="0 0 478 514" xmlns="http://www.w3.org/2000/svg">
<rect x="0" y="0" width="478" height="514" fill="none" stroke="none" stroke-width="0"/>

<!-- Association AVOIR_1 -->
<g>
	<line x1="251" y1="47" x2="78" y2="47" stroke="#726f83" stroke-width="1"/>
	<line x1="78" y1="206" x2="78" y2="47" stroke="#726f83" stroke-width="1"/>
	<g>
		<path d="M103 18 a14 14 90 0 1 14 14 V46 h-78 V32 a14 14 90 0 1 14 -14" fill="#b2bba4" stroke="#b2bba4" stroke-width="0"/>
		<path d="M117 46 v16 a14 14 90 0 1 -14 14 H53 a14 14 90 0 1 -14 -14 V46 H78" fill="#ccd6ba" stroke="#ccd6ba" stroke-width="0"/>
		<rect x="39" y="18" width="78" height="58" fill="none" rx="14" stroke="#85956b" stroke-width="1.5"/>
		<line x1="39" y1="46" x2="117" y2="46" stroke="#85956b" stroke-width="1.5"/>
		<text x="46" y="39.3" fill="#27360c" font-family="Copperplate" font-size="18">AVOIR </text>
	</g>
	<text x="172" y="63" fill="#726f83" font-family="Futura" font-size="11">1,1</text>
	<text x="83" y="92" fill="#726f83" font-family="Futura" font-size="11">0,N</text>
</g>

<!-- Association ETRE_ASSIGNE -->
<g>
	<line x1="78" y1="206" x2="251" y2="206" stroke="#726f83" stroke-width="1"/>
	<line x1="251" y1="382" x2="251" y2="206" stroke="#726f83" stroke-width="1"/>
	<g>
		<path d="M312 177 a14 14 90 0 1 14 14 V205 h-150 V191 a14 14 90 0 1 14 -14" fill="#b2bba4" stroke="#b2bba4" stroke-width="0"/>
		<path d="M326 205 v16 a14 14 90 0 1 -14 14 H190 a14 14 90 0 1 -14 -14 V205 H150" fill="#ccd6ba" stroke="#ccd6ba" stroke-width="0"/>
		<rect x="176" y="177" width="150" height="58" fill="none" rx="14" stroke="#85956b" stroke-width="1.5"/>
		<line x1="176" y1="205" x2="326" y2="205" stroke="#85956b" stroke-width="1.5"/>
		<text x="183" y="198.3" fill="#27360c" font-family="Copperplate" font-size="18">ÊTRE ASSIGNÉ</text>
	</g>
	<text x="152" y="222" fill="#726f83" font-family="Futura" font-size="11">0,N</text>
	<text x="227" y="251" fill="#726f83" font-family="Futura" font-size="11">0,N</text>
</g>

<!-- Association CONTENIR -->
<g>
	<path d="M251 382 C279.72 295.6 333.06 236.94 411 206" fill="none" stroke="#726f83" stroke-width="1"/>
	<line x1="251" y1="47" x2="411" y2="206" stroke="#726f83" stroke-width="1"/>
	<g>
		<path d="M453 177 a14 14 90 0 1 14 14 V205 h-112 V191 a14 14 90 0 1 14 -14" fill="#b2bba4" stroke="#b2bba4" stroke-width="0"/>
		<path d="M467 205 v16 a14 14 90 0 1 -14 14 H369 a14 14 90 0 1 -14 -14 V205 H112" fill="#ccd6ba" stroke="#ccd6ba" stroke-width="0"/>
		<rect x="355" y="177" width="112" height="58" fill="none" rx="14" stroke="#85956b" stroke-width="1.5"/>
		<line x1="355" y1="205" x2="467" y2="205" stroke="#85956b" stroke-width="1.5"/>
		<text x="362" y="198.3" fill="#27360c" font-family="Copperplate" font-size="18">CONTENIR</text>
	</g>
	<text x="324" y="275.4" fill="#726f83" font-family="Futura" font-size="11">0,1</text>
	<text x="272.28" y="101" fill="#726f83" font-family="Futura" font-size="11">0,N</text>
</g>

<!-- Association AVOIR_2 -->
<g>
	<line x1="251" y1="382" x2="78" y2="382" stroke="#726f83" stroke-width="1"/>
	<line x1="78" y1="206" x2="78" y2="382" stroke="#726f83" stroke-width="1"/>
	<g>
		<path d="M103 353 a14 14 90 0 1 14 14 V381 h-78 V367 a14 14 90 0 1 14 -14" fill="#b2bba4" stroke="#b2bba4" stroke-width="0"/>
		<path d="M117 381 v16 a14 14 90 0 1 -14 14 H53 a14 14 90 0 1 -14 -14 V381 H78" fill="#ccd6ba" stroke="#ccd6ba" stroke-width="0"/>
		<rect x="39" y="353" width="78" height="58" fill="none" rx="14" stroke="#85956b" stroke-width="1.5"/>
		<line x1="39" y1="381" x2="117" y2="381" stroke="#85956b" stroke-width="1.5"/>
		<text x="46" y="374.3" fill="#27360c" font-family="Copperplate" font-size="18">AVOIR </text>
	</g>
	<text x="160" y="398" fill="#726f83" font-family="Futura" font-size="11">1,1</text>
	<text x="83" y="328" fill="#726f83" font-family="Futura" font-size="11">0,N</text>
</g>

<!-- Association DEPENDRE -->
<g>
	<path d="M251 382 C307.67 350 361 350 411 382" fill="none" stroke="#726f83" stroke-width="1"/>
	<path d="M251 382 C307.67 414 361 414 411 382" fill="none" stroke="#726f83" stroke-width="1"/>
	<g>
		<path d="M455 353 a14 14 90 0 1 14 14 V381 h-116 V367 a14 14 90 0 1 14 -14" fill="#b2bba4" stroke="#b2bba4" stroke-width="0"/>
		<path d="M469 381 v16 a14 14 90 0 1 -14 14 H367 a14 14 90 0 1 -14 -14 V381 H116" fill="#ccd6ba" stroke="#ccd6ba" stroke-width="0"/>
		<rect x="353" y="353" width="116" height="58" fill="none" rx="14" stroke="#85956b" stroke-width="1.5"/>
		<line x1="353" y1="381" x2="469" y2="381" stroke="#85956b" stroke-width="1.5"/>
		<text x="360" y="374.3" fill="#27360c" font-family="Copperplate" font-size="18">DÉPENDRE</text>
	</g>
	<text x="324" y="375" fill="#726f83" font-family="Futura" font-size="11">0,N</text>
	<text x="324" y="397" fill="#726f83" font-family="Futura" font-size="11">0,N</text>
</g>

<!-- Entity LISTE -->
<g>
	<g>
		<rect x="195" y="9" width="112" height="30" fill="#97b8ff" stroke="none" stroke-width="0" opacity="1"/>
		<rect x="195" y="39" width="112" height="46" fill="#c0d4ff" stroke="none" stroke-width="0" opacity="1"/>
		<rect x="195" y="9" width="112" height="76" fill="none" stroke="#578dff" stroke-width="1.5" opacity="1"/>
		<line x1="195" y1="39" x2="307" y2="39" stroke="#578dff" stroke-width="1.5"/>
	</g>
	<text x="225" y="30.3" fill="#131114" font-family="Copperplate" font-size="18">LISTE</text>
	<text x="203" y="56.1" fill="#3e3c42" font-family="Gill Sans" font-size="15">idListe</text>
	<line x1="203" y1="59" x2="244" y2="59" stroke="#3e3c42" stroke-width="1"/>
	<text x="203" y="73.1" fill="#3e3c42" font-family="Gill Sans" font-size="15">Nom de projet</text>
</g>

<!-- Entity UTILISATEUR -->
<g>
	<g>
		<rect x="9" y="100" width="138" height="30" fill="#97b8ff" stroke="none" stroke-width="0" opacity="1"/>
		<rect x="9" y="130" width="138" height="182" fill="#c0d4ff" stroke="none" stroke-width="0" opacity="1"/>
		<rect x="9" y="100" width="138" height="212" fill="none" stroke="#578dff" stroke-width="1.5" opacity="1"/>
		<line x1="9" y1="130" x2="147" y2="130" stroke="#578dff" stroke-width="1.5"/>
	</g>
	<text x="18" y="121.3" fill="#131114" font-family="Copperplate" font-size="18">UTILISATEUR</text>
	<text x="17" y="147" fill="#3e3c42" font-family="Gill Sans" font-size="15">idUtilisateur</text>
	<line x1="17" y1="150" x2="94" y2="150" stroke="#3e3c42" stroke-width="1"/>
	<text x="17" y="164" fill="#3e3c42" font-family="Gill Sans" font-size="15">Nom</text>
	<text x="17" y="181.1" fill="#3e3c42" font-family="Gill Sans" font-size="15">Prénom</text>
	<text x="17" y="198.1" fill="#3e3c42" font-family="Gill Sans" font-size="15">Adresse</text>
	<text x="17" y="215.1" fill="#3e3c42" font-family="Gill Sans" font-size="15">Date de naissance</text>
	<text x="17" y="232.1" fill="#3e3c42" font-family="Gill Sans" font-size="15">Date d’inscription</text>
	<text x="17" y="249" fill="#3e3c42" font-family="Gill Sans" font-size="15">Login</text>
	<text x="17" y="266" fill="#3e3c42" font-family="Gill Sans" font-size="15">Mot de passe</text>
	<text x="17" y="283" fill="#3e3c42" font-family="Gill Sans" font-size="15">Score</text>
	<text x="17" y="300" fill="#3e3c42" font-family="Gill Sans" font-size="15">Programme</text>
</g>

<!-- Entity TACHE -->
<g>
	<g>
		<rect x="183" y="259" width="136" height="30" fill="#97b8ff" stroke="none" stroke-width="0" opacity="1"/>
		<rect x="183" y="289" width="136" height="216" fill="#c0d4ff" stroke="none" stroke-width="0" opacity="1"/>
		<rect x="183" y="259" width="136" height="246" fill="none" stroke="#578dff" stroke-width="1.5" opacity="1"/>
		<line x1="183" y1="289" x2="319" y2="289" stroke="#578dff" stroke-width="1.5"/>
	</g>
	<text x="220" y="280.3" fill="#131114" font-family="Copperplate" font-size="18">TACHE</text>
	<text x="191" y="306" fill="#3e3c42" font-family="Gill Sans" font-size="15">idTache</text>
	<line x1="191" y1="309" x2="241" y2="309" stroke="#3e3c42" stroke-width="1"/>
	<text x="191" y="323" fill="#3e3c42" font-family="Gill Sans" font-size="15">Titre</text>
	<text x="191" y="340" fill="#3e3c42" font-family="Gill Sans" font-size="15">Priorité</text>
	<text x="191" y="357.1" fill="#3e3c42" font-family="Gill Sans" font-size="15">Catégorie</text>
	<text x="191" y="374.1" fill="#3e3c42" font-family="Gill Sans" font-size="15">Lien</text>
	<text x="191" y="391.1" fill="#3e3c42" font-family="Gill Sans" font-size="15">Description</text>
	<text x="191" y="408.1" fill="#3e3c42" font-family="Gill Sans" font-size="15">Date d’échéance</text>
	<text x="191" y="425" fill="#3e3c42" font-family="Gill Sans" font-size="15">Status</text>
	<text x="191" y="442" fill="#3e3c42" font-family="Gill Sans" font-size="15">Date de début</text>
	<text x="191" y="459" fill="#3e3c42" font-family="Gill Sans" font-size="15">Date de fin</text>
	<text x="191" y="476" fill="#3e3c42" font-family="Gill Sans" font-size="15">Intervalle</text>
	<text x="191" y="493" fill="#3e3c42" font-family="Gill Sans" font-size="15">Date de réalisation</text>
</g>
</svg>