<?xml version="1.0" encoding="utf-8"?>
<!-- Generated by Mocodo 4.0.12 -->
<svg width="790" height="639" viewBox="0 0 790 639" xmlns="http://www.w3.org/2000/svg">
<rect x="0" y="0" width="790" height="639" fill="none" stroke="none" stroke-width="0"/>

<!-- Inheritance TACHE_PARENT_#1 -->
<g>
	<line x1="388" y1="172" x2="569" y2="172" stroke="#726f83" stroke-width="1"/>
	<polygon points="448 172 460 166 456 172 460 178" fill="#726f83" stroke-width="0"/>
	<line x1="569" y1="47" x2="569" y2="172" stroke="#726f83" stroke-width="1"/>
	<line x1="702" y1="172" x2="569" y2="172" stroke="#726f83" stroke-width="1"/>
	<g>
		<polygon points="569 143.13 544 186.43 594 186.43" stroke="#85956b" stroke-width="1.5" fill="#b2bba4"/>
		<text x="557" y="178" fill="#27360c" font-family="Copperplate" font-size="18">XT</text>
	</g>
</g>

<!-- Association CONTIENT -->
<g>
	<path d="M388 172 C322.57 167.64 267.57 125.98 223 47" fill="none" stroke="#726f83" stroke-width="1"/>
	<line x1="78" y1="47" x2="223" y2="47" stroke="#726f83" stroke-width="1"/>
	<g>
		<path d="M264 18 a14 14 90 0 1 14 14 V46 h-110 V32 a14 14 90 0 1 14 -14" fill="#b2bba4" stroke="#b2bba4" stroke-width="0"/>
		<path d="M278 46 v16 a14 14 90 0 1 -14 14 H182 a14 14 90 0 1 -14 -14 V46 H110" fill="#ccd6ba" stroke="#ccd6ba" stroke-width="0"/>
		<rect x="168" y="18" width="110" height="58" fill="none" rx="14" stroke="#85956b" stroke-width="1.5"/>
		<line x1="168" y1="46" x2="278" y2="46" stroke="#85956b" stroke-width="1.5"/>
		<text x="175" y="39.3" fill="#27360c" font-family="Copperplate" font-size="18">CONTIENT</text>
	</g>
	<text x="305" y="136.7" fill="#726f83" font-family="Futura" font-size="11">0,1</text>
	<text x="139" y="63" fill="#726f83" font-family="Futura" font-size="11">0,N</text>
</g>

<!-- Association DEPEND_DE -->
<g>
	<path d="M388 172 C349.33 101.67 349.33 60 388 47" fill="none" stroke="#726f83" stroke-width="1"/>
	<path d="M388 172 C426.67 101.67 426.67 60 388 47" fill="none" stroke="#726f83" stroke-width="1"/>
	<g>
		<path d="M435 18 a14 14 90 0 1 14 14 V46 h-122 V32 a14 14 90 0 1 14 -14" fill="#b2bba4" stroke="#b2bba4" stroke-width="0"/>
		<path d="M449 46 v16 a14 14 90 0 1 -14 14 H341 a14 14 90 0 1 -14 -14 V46 H122" fill="#ccd6ba" stroke="#ccd6ba" stroke-width="0"/>
		<rect x="327" y="18" width="122" height="58" fill="none" rx="14" stroke="#85956b" stroke-width="1.5"/>
		<line x1="327" y1="46" x2="449" y2="46" stroke="#85956b" stroke-width="1.5"/>
		<text x="334" y="39.3" fill="#27360c" font-family="Copperplate" font-size="18">DÉPEND DE</text>
	</g>
	<text x="365" y="92" fill="#726f83" font-family="Futura" font-size="11">0,N</text>
	<text x="392" y="92" fill="#726f83" font-family="Futura" font-size="11">0,N</text>
</g>

<!-- Association DEFINIT_1 -->
<g>
	<line x1="78" y1="47" x2="78" y2="172" stroke="#726f83" stroke-width="1"/>
	<line x1="78" y1="323" x2="78" y2="172" stroke="#726f83" stroke-width="1"/>
	<g>
		<path d="M111 143 a14 14 90 0 1 14 14 V171 h-94 V157 a14 14 90 0 1 14 -14" fill="#b2bba4" stroke="#b2bba4" stroke-width="0"/>
		<path d="M125 171 v16 a14 14 90 0 1 -14 14 H45 a14 14 90 0 1 -14 -14 V171 H94" fill="#ccd6ba" stroke="#ccd6ba" stroke-width="0"/>
		<rect x="31" y="143" width="94" height="58" fill="none" rx="14" stroke="#85956b" stroke-width="1.5"/>
		<line x1="31" y1="171" x2="125" y2="171" stroke="#85956b" stroke-width="1.5"/>
		<text x="39" y="164.3" fill="#27360c" font-family="Copperplate" font-size="18">DÉFINIT </text>
	</g>
	<text x="83" y="101" fill="#726f83" font-family="Futura" font-size="11">1,1</text>
	<text x="54" y="217" fill="#726f83" font-family="Futura" font-size="11">0,N</text>
</g>

<!-- Association EST_ASSIGNE -->
<g>
	<line x1="78" y1="323" x2="223" y2="172" stroke="#726f83" stroke-width="1"/>
	<line x1="388" y1="172" x2="223" y2="172" stroke="#726f83" stroke-width="1"/>
	<g>
		<path d="M278 143 a14 14 90 0 1 14 14 V171 h-138 V157 a14 14 90 0 1 14 -14" fill="#b2bba4" stroke="#b2bba4" stroke-width="0"/>
		<path d="M292 171 v16 a14 14 90 0 1 -14 14 H168 a14 14 90 0 1 -14 -14 V171 H138" fill="#ccd6ba" stroke="#ccd6ba" stroke-width="0"/>
		<rect x="154" y="143" width="138" height="58" fill="none" rx="14" stroke="#85956b" stroke-width="1.5"/>
		<line x1="154" y1="171" x2="292" y2="171" stroke="#85956b" stroke-width="1.5"/>
		<text x="162" y="164.3" fill="#27360c" font-family="Copperplate" font-size="18">EST ASSIGNÉ</text>
	</g>
	<text x="152" y="260.28" fill="#726f83" font-family="Futura" font-size="11">0,N</text>
	<text x="304" y="188" fill="#726f83" font-family="Futura" font-size="11">0,N</text>
</g>

<!-- Association CREE_2 -->
<g>
	<line x1="388" y1="172" x2="223" y2="323" stroke="#726f83" stroke-width="1"/>
	<line x1="78" y1="323" x2="223" y2="323" stroke="#726f83" stroke-width="1"/>
	<g>
		<path d="M245 294 a14 14 90 0 1 14 14 V322 h-72 V308 a14 14 90 0 1 14 -14" fill="#b2bba4" stroke="#b2bba4" stroke-width="0"/>
		<path d="M259 322 v16 a14 14 90 0 1 -14 14 H201 a14 14 90 0 1 -14 -14 V322 H72" fill="#ccd6ba" stroke="#ccd6ba" stroke-width="0"/>
		<rect x="187" y="294" width="72" height="58" fill="none" rx="14" stroke="#85956b" stroke-width="1.5"/>
		<line x1="187" y1="322" x2="259" y2="322" stroke="#85956b" stroke-width="1.5"/>
		<text x="195" y="315.3" fill="#27360c" font-family="Copperplate" font-size="18">CRÉE </text>
	</g>
	<text x="305" y="225.54" fill="#726f83" font-family="Futura" font-size="11">1,1</text>
	<text x="152" y="339" fill="#726f83" font-family="Futura" font-size="11">0,N</text>
</g>

<!-- Association SE_REPETE -->
<g>
	<line x1="388" y1="475" x2="388" y2="323" stroke="#726f83" stroke-width="1"/>
	<line x1="388" y1="172" x2="388" y2="323" stroke="#726f83" stroke-width="1"/>
	<g>
		<path d="M433 294 a14 14 90 0 1 14 14 V322 h-118 V308 a14 14 90 0 1 14 -14" fill="#b2bba4" stroke="#b2bba4" stroke-width="0"/>
		<path d="M447 322 v16 a14 14 90 0 1 -14 14 H343 a14 14 90 0 1 -14 -14 V322 H118" fill="#ccd6ba" stroke="#ccd6ba" stroke-width="0"/>
		<rect x="329" y="294" width="118" height="58" fill="none" rx="14" stroke="#85956b" stroke-width="1.5"/>
		<line x1="329" y1="322" x2="447" y2="322" stroke="#85956b" stroke-width="1.5"/>
		<text x="337" y="315.3" fill="#27360c" font-family="Copperplate" font-size="18">SE RÉPÉTE</text>
	</g>
	<text x="393" y="412" fill="#726f83" font-family="Futura" font-size="11">1,N</text>
	<text x="393" y="260" fill="#726f83" font-family="Futura" font-size="11">0,1</text>
</g>

<!-- Association APPARTIENT -->
<g>
	<line x1="388" y1="172" x2="569" y2="323" stroke="#726f83" stroke-width="1"/>
	<line x1="569" y1="475" x2="569" y2="323" stroke="#726f83" stroke-width="1"/>
	<g>
		<path d="M620 294 a14 14 90 0 1 14 14 V322 h-130 V308 a14 14 90 0 1 14 -14" fill="#b2bba4" stroke="#b2bba4" stroke-width="0"/>
		<path d="M634 322 v16 a14 14 90 0 1 -14 14 H518 a14 14 90 0 1 -14 -14 V322 H130" fill="#ccd6ba" stroke="#ccd6ba" stroke-width="0"/>
		<rect x="504" y="294" width="130" height="58" fill="none" rx="14" stroke="#85956b" stroke-width="1.5"/>
		<line x1="504" y1="322" x2="634" y2="322" stroke="#85956b" stroke-width="1.5"/>
		<text x="511" y="315.3" fill="#27360c" font-family="Copperplate" font-size="18">APPARTIENT</text>
	</g>
	<text x="453" y="220.23" fill="#726f83" font-family="Futura" font-size="11">1,1</text>
	<text x="574" y="437" fill="#726f83" font-family="Futura" font-size="11">0,N</text>
</g>

<!-- Association UTILISE -->
<g>
	<line x1="78" y1="323" x2="78" y2="475" stroke="#726f83" stroke-width="1"/>
	<line x1="223" y1="475" x2="78" y2="475" stroke="#726f83" stroke-width="1"/>
	<g>
		<path d="M107 446 a14 14 90 0 1 14 14 V474 h-86 V460 a14 14 90 0 1 14 -14" fill="#b2bba4" stroke="#b2bba4" stroke-width="0"/>
		<path d="M121 474 v16 a14 14 90 0 1 -14 14 H49 a14 14 90 0 1 -14 -14 V474 H86" fill="#ccd6ba" stroke="#ccd6ba" stroke-width="0"/>
		<rect x="35" y="446" width="86" height="58" fill="none" rx="14" stroke="#85956b" stroke-width="1.5"/>
		<line x1="35" y1="474" x2="121" y2="474" stroke="#85956b" stroke-width="1.5"/>
		<text x="42" y="467.3" fill="#27360c" font-family="Copperplate" font-size="18">UTILISE</text>
	</g>
	<text x="83" y="437" fill="#726f83" font-family="Futura" font-size="11">0,1</text>
	<text x="131" y="491" fill="#726f83" font-family="Futura" font-size="11">0,N</text>
</g>

<!-- Association COMPORTE -->
<g>
	<line x1="223" y1="475" x2="223" y2="592" stroke="#726f83" stroke-width="1"/>
	<line x1="388" y1="592" x2="223" y2="592" stroke="#726f83" stroke-width="1"/>
	<g>
		<path d="M269 563 a14 14 90 0 1 14 14 V591 h-120 V577 a14 14 90 0 1 14 -14" fill="#b2bba4" stroke="#b2bba4" stroke-width="0"/>
		<path d="M283 591 v16 a14 14 90 0 1 -14 14 H177 a14 14 90 0 1 -14 -14 V591 H120" fill="#ccd6ba" stroke="#ccd6ba" stroke-width="0"/>
		<rect x="163" y="563" width="120" height="58" fill="none" rx="14" stroke="#85956b" stroke-width="1.5"/>
		<line x1="163" y1="591" x2="283" y2="591" stroke="#85956b" stroke-width="1.5"/>
		<text x="171" y="584.3" fill="#27360c" font-family="Copperplate" font-size="18">COMPORTE</text>
	</g>
	<text x="228" y="521" fill="#726f83" font-family="Futura" font-size="11">1,N</text>
	<text x="323" y="608" fill="#726f83" font-family="Futura" font-size="11">1,N</text>
</g>

<!-- Association S_ASSOCIE -->
<g>
	<line x1="388" y1="592" x2="569" y2="592" stroke="#726f83" stroke-width="1"/>
	<line x1="569" y1="475" x2="569" y2="592" stroke="#726f83" stroke-width="1"/>
	<g>
		<path d="M611 563 a14 14 90 0 1 14 14 V591 h-112 V577 a14 14 90 0 1 14 -14" fill="#b2bba4" stroke="#b2bba4" stroke-width="0"/>
		<path d="M625 591 v16 a14 14 90 0 1 -14 14 H527 a14 14 90 0 1 -14 -14 V591 H112" fill="#ccd6ba" stroke="#ccd6ba" stroke-width="0"/>
		<rect x="513" y="563" width="112" height="58" fill="none" rx="14" stroke="#85956b" stroke-width="1.5"/>
		<line x1="513" y1="591" x2="625" y2="591" stroke="#85956b" stroke-width="1.5"/>
		<text x="520" y="584.3" fill="#27360c" font-family="Copperplate" font-size="18">S’ASSOCIE</text>
	</g>
	<text x="434" y="608" fill="#726f83" font-family="Futura" font-size="11">1,1</text>
	<text x="574" y="521" fill="#726f83" font-family="Futura" font-size="11">0,N</text>
</g>

<!-- Entity LISTE -->
<g>
	<g>
		<rect x="22" y="9" width="112" height="30" fill="#97b8ff" stroke="none" stroke-width="0" opacity="1"/>
		<rect x="22" y="39" width="112" height="46" fill="#c0d4ff" stroke="none" stroke-width="0" opacity="1"/>
		<rect x="22" y="9" width="112" height="76" fill="none" stroke="#578dff" stroke-width="1.5" opacity="1"/>
		<line x1="22" y1="39" x2="134" y2="39" stroke="#578dff" stroke-width="1.5"/>
	</g>
	<text x="52" y="30.3" fill="#131114" font-family="Copperplate" font-size="18">LISTE</text>
	<text x="30" y="56.1" fill="#3e3c42" font-family="Gill Sans" font-size="15">idListe</text>
	<line x1="30" y1="59" x2="71" y2="59" stroke="#3e3c42" stroke-width="1"/>
	<text x="30" y="73.1" fill="#3e3c42" font-family="Gill Sans" font-size="15">Nom de projet</text>
</g>

<!-- Entity TACHE_EN_COURS -->
<g>
	<g>
		<rect x="478" y="26" width="182" height="30" fill="#97b8ff" stroke="none" stroke-width="0" opacity="1"/>
		<rect x="478" y="56" width="182" height="12" fill="#c0d4ff" stroke="none" stroke-width="0" opacity="1"/>
		<rect x="478" y="26" width="182" height="42" fill="none" stroke="#578dff" stroke-width="1.5" opacity="1"/>
		<line x1="478" y1="56" x2="660" y2="56" stroke="#578dff" stroke-width="1.5"/>
	</g>
	<text x="487" y="47.3" fill="#131114" font-family="Copperplate" font-size="18">TACHE EN COURS</text>
</g>

<!-- Entity TACHE -->
<g>
	<g>
		<rect x="328" y="100" width="120" height="30" fill="#97b8ff" stroke="none" stroke-width="0" opacity="1"/>
		<rect x="328" y="130" width="120" height="114" fill="#c0d4ff" stroke="none" stroke-width="0" opacity="1"/>
		<rect x="328" y="100" width="120" height="144" fill="none" stroke="#578dff" stroke-width="1.5" opacity="1"/>
		<line x1="328" y1="130" x2="448" y2="130" stroke="#578dff" stroke-width="1.5"/>
	</g>
	<text x="357" y="121.3" fill="#131114" font-family="Copperplate" font-size="18">TACHE</text>
	<text x="336" y="147.1" fill="#3e3c42" font-family="Gill Sans" font-size="15">idTache</text>
	<line x1="336" y1="150" x2="386" y2="150" stroke="#3e3c42" stroke-width="1"/>
	<text x="336" y="164.1" fill="#3e3c42" font-family="Gill Sans" font-size="15">Titre</text>
	<text x="336" y="181.1" fill="#3e3c42" font-family="Gill Sans" font-size="15">Priorité</text>
	<text x="336" y="198.1" fill="#3e3c42" font-family="Gill Sans" font-size="15">Lien</text>
	<text x="336" y="215" fill="#3e3c42" font-family="Gill Sans" font-size="15">Description</text>
	<text x="336" y="232" fill="#3e3c42" font-family="Gill Sans" font-size="15">Date d’échéance</text>
</g>

<!-- Entity TACHE_PASSEE -->
<g>
	<g>
		<rect x="623" y="142" width="158" height="30" fill="#97b8ff" stroke="none" stroke-width="0" opacity="1"/>
		<rect x="623" y="172" width="158" height="30" fill="#c0d4ff" stroke="none" stroke-width="0" opacity="1"/>
		<rect x="623" y="142" width="158" height="60" fill="none" stroke="#578dff" stroke-width="1.5" opacity="1"/>
		<line x1="623" y1="172" x2="781" y2="172" stroke="#578dff" stroke-width="1.5"/>
	</g>
	<text x="632" y="163.3" fill="#131114" font-family="Copperplate" font-size="18">TACHE PASSÉE</text>
	<text x="631" y="189.1" fill="#3e3c42" font-family="Gill Sans" font-size="15">Date de réalisation</text>
</g>

<!-- Entity UTILISATEUR -->
<g>
	<g>
		<rect x="9" y="225" width="138" height="30" fill="#97b8ff" stroke="none" stroke-width="0" opacity="1"/>
		<rect x="9" y="255" width="138" height="166" fill="#c0d4ff" stroke="none" stroke-width="0" opacity="1"/>
		<rect x="9" y="225" width="138" height="196" fill="none" stroke="#578dff" stroke-width="1.5" opacity="1"/>
		<line x1="9" y1="255" x2="147" y2="255" stroke="#578dff" stroke-width="1.5"/>
	</g>
	<text x="18" y="246.3" fill="#131114" font-family="Copperplate" font-size="18">UTILISATEUR</text>
	<text x="17" y="272" fill="#3e3c42" font-family="Gill Sans" font-size="15">idUtilisateur</text>
	<line x1="17" y1="275" x2="94" y2="275" stroke="#3e3c42" stroke-width="1"/>
	<text x="17" y="289" fill="#3e3c42" font-family="Gill Sans" font-size="15">Nom</text>
	<text x="17" y="306.1" fill="#3e3c42" font-family="Gill Sans" font-size="15">Prénom</text>
	<text x="17" y="323.1" fill="#3e3c42" font-family="Gill Sans" font-size="15">Adresse</text>
	<text x="17" y="340.1" fill="#3e3c42" font-family="Gill Sans" font-size="15">Date de naissance</text>
	<text x="17" y="357" fill="#3e3c42" font-family="Gill Sans" font-size="15">Date d’inscription</text>
	<text x="17" y="374" fill="#3e3c42" font-family="Gill Sans" font-size="15">Login</text>
	<text x="17" y="391" fill="#3e3c42" font-family="Gill Sans" font-size="15">Mot de passe</text>
	<text x="17" y="408" fill="#3e3c42" font-family="Gill Sans" font-size="15">Score</text>
</g>

<!-- Entity PROGRAMME -->
<g>
	<g>
		<rect x="155" y="445" width="136" height="30" fill="#97b8ff" stroke="none" stroke-width="0" opacity="1"/>
		<rect x="155" y="475" width="136" height="30" fill="#c0d4ff" stroke="none" stroke-width="0" opacity="1"/>
		<rect x="155" y="445" width="136" height="60" fill="none" stroke="#578dff" stroke-width="1.5" opacity="1"/>
		<line x1="155" y1="475" x2="291" y2="475" stroke="#578dff" stroke-width="1.5"/>
	</g>
	<text x="163" y="466.3" fill="#131114" font-family="Copperplate" font-size="18">PROGRAMME</text>
	<text x="163" y="492.1" fill="#3e3c42" font-family="Gill Sans" font-size="15">Programme</text>
	<line x1="163" y1="495" x2="236" y2="495" stroke="#3e3c42" stroke-width="1"/>
</g>

<!-- Entity PERIODICITE -->
<g>
	<g>
		<rect x="320" y="420" width="136" height="30" fill="#97b8ff" stroke="none" stroke-width="0" opacity="1"/>
		<rect x="320" y="450" width="136" height="80" fill="#c0d4ff" stroke="none" stroke-width="0" opacity="1"/>
		<rect x="320" y="420" width="136" height="110" fill="none" stroke="#578dff" stroke-width="1.5" opacity="1"/>
		<line x1="320" y1="450" x2="456" y2="450" stroke="#578dff" stroke-width="1.5"/>
	</g>
	<text x="329" y="441.3" fill="#131114" font-family="Copperplate" font-size="18">PÉRIODICITÉ</text>
	<text x="328" y="467.1" fill="#3e3c42" font-family="Gill Sans" font-size="15">idPériodicité</text>
	<line x1="328" y1="470" x2="407" y2="470" stroke="#3e3c42" stroke-width="1"/>
	<text x="328" y="484.1" fill="#3e3c42" font-family="Gill Sans" font-size="15">Date de début</text>
	<text x="328" y="501.1" fill="#3e3c42" font-family="Gill Sans" font-size="15">Date de fin</text>
	<text x="328" y="518" fill="#3e3c42" font-family="Gill Sans" font-size="15">Intervalle</text>
</g>

<!-- Entity CATEGORIE -->
<g>
	<g>
		<rect x="507" y="445" width="124" height="30" fill="#97b8ff" stroke="none" stroke-width="0" opacity="1"/>
		<rect x="507" y="475" width="124" height="30" fill="#c0d4ff" stroke="none" stroke-width="0" opacity="1"/>
		<rect x="507" y="445" width="124" height="60" fill="none" stroke="#578dff" stroke-width="1.5" opacity="1"/>
		<line x1="507" y1="475" x2="631" y2="475" stroke="#578dff" stroke-width="1.5"/>
	</g>
	<text x="516" y="466.3" fill="#131114" font-family="Copperplate" font-size="18">CATÉGORIE</text>
	<text x="515" y="492.1" fill="#3e3c42" font-family="Gill Sans" font-size="15">Catégorie</text>
	<line x1="515" y1="495" x2="577" y2="495" stroke="#3e3c42" stroke-width="1"/>
</g>

<!-- Entity SCORE -->
<g>
	<g>
		<rect x="347" y="554" width="82" height="30" fill="#97b8ff" stroke="none" stroke-width="0" opacity="1"/>
		<rect x="347" y="584" width="82" height="46" fill="#c0d4ff" stroke="none" stroke-width="0" opacity="1"/>
		<rect x="347" y="554" width="82" height="76" fill="none" stroke="#578dff" stroke-width="1.5" opacity="1"/>
		<line x1="347" y1="584" x2="429" y2="584" stroke="#578dff" stroke-width="1.5"/>
	</g>
	<text x="356" y="575.3" fill="#131114" font-family="Copperplate" font-size="18">SCORE</text>
	<text x="355" y="601.1" fill="#3e3c42" font-family="Gill Sans" font-size="15">idScore</text>
	<line x1="355" y1="604" x2="403" y2="604" stroke="#3e3c42" stroke-width="1"/>
	<text x="355" y="618.1" fill="#3e3c42" font-family="Gill Sans" font-size="15">Points</text>
</g>
</svg>